<?xml version="1.0" standalone="no"?> <!DOCTYPE svg PUBLIC "-//W3C//DTD SVG 20010904//EN" "http://www.w3.org/TR/2001/REC-SVG-20010904/DTD/svg10.dtd"> <svg version="1.0" xmlns="http://www.w3.org/2000/svg" width="600.000000pt" height="400.000000pt" viewBox="0 0 600.000000 400.000000" preserveAspectRatio="xMidYMid meet"> <g transform="translate(0.000000,400.000000) scale(0.100000,-0.100000)" fill="#3d3d3d" stroke="none"> <path d="M1325 2756 c-44 -12 -116 -39 -161 -59 -44 -20 -105 -41 -135 -47 -88 -17 -169 -42 -163 -51 2 -5 -18 -11 -47 -15 -28 -4 -53 -13 -56 -20 -3 -8 -13 -14 -22 -14 -9 0 -38 -11 -65 -25 -27 -14 -43 -25 -34 -25 24 0 78 21 78 31 0 5 17 9 38 9 21 0 55 9 77 20 43 22 71 26 77 10 2 -7 11 -5 23 4 14 10 15 14 5 13 -8 -1 -17 3 -20 8 -3 6 15 13 40 16 25 3 54 9 65 14 14 5 10 -1 -10 -19 -16 -14 -33 -25 -37 -26 -4 0 -9 -8 -12 -18 -4 -13 -18 -19 -46 -20 -22 -2 -51 -7 -63 -13 l-22 -10 22 5 c13 2 38 1 56 -4 32 -7 38 -4 80 40 25 26 67 57 92 69 26 12 65 33 87 47 22 14 42 23 45 20 3 -3 12 1 20 9 8 8 23 16 34 16 18 1 30 4 47 9 4 1 11 2 15 1 4 -1 18 4 30 11 26 15 273 20 300 6 18 -9 38 -15 87 -24 14 -2 76 -30 138 -62 119 -60 158 -93 228 -197 49 -71 91 -187 106 -289 11 -76 10 -101 -5 -186 -26 -155 -74 -246 -195 -371 -51 -53 -52 -56 -28 -56 14 0 24 3 21 7 -6 10 508 10 525 0 17 -10 42 -1 34 12 -4 6 4 4 17 -4 13 -7 44 -13 69 -12 25 0 76 2 113 3 38 0 66 5 63 10 -8 13 10 17 50 13 19 -2 31 -8 28 -13 -8 -14 123 -10 196 5 39 8 104 12 163 10 55 -2 106 0 115 6 13 7 10 9 -13 6 -16 -2 -24 -1 -17 1 6 2 12 9 12 15 0 5 -7 7 -16 4 -9 -3 -214 -9 -457 -12 -243 -3 -460 -8 -482 -12 -22 -4 -106 -7 -186 -7 -87 0 -145 -4 -141 -9 3 -5 -2 -6 -12 -3 -10 4 -24 7 -31 7 -9 0 -3 12 15 30 16 16 34 30 40 30 6 0 8 5 5 10 -3 6 4 14 17 19 13 6 17 10 10 10 -19 1 16 51 37 52 11 0 12 2 3 6 -20 8 6 33 26 26 14 -5 14 -3 -2 9 -17 13 -17 15 -1 31 9 9 13 18 8 18 -26 4 62 17 117 17 48 1 59 -2 43 -8 -13 -5 -23 -11 -23 -13 0 -3 159 -1 170 2 3 1 66 4 140 6 230 6 400 17 400 25 0 5 14 4 31 -2 19 -7 84 -9 173 -6 77 3 166 2 196 -2 l55 -7 -60 -3 c-33 -1 -191 -3 -351 -4 -198 -2 -296 -7 -310 -14 -16 -10 -12 -11 21 -7 22 3 221 7 442 8 298 3 405 7 416 16 12 9 16 9 19 0 3 -8 11 -10 22 -6 9 4 15 11 12 15 -3 5 6 7 20 4 41 -8 11 -26 -54 -33 l-57 -7 60 3 c127 7 176 12 183 20 4 4 -5 5 -19 1 -19 -4 -29 -1 -33 9 -4 11 1 13 27 7 18 -4 56 -7 85 -7 28 0 52 -4 52 -8 0 -5 5 -5 10 -2 20 12 -1 24 -34 18 -19 -3 -36 -1 -40 6 -4 6 0 12 8 12 9 1 22 2 29 3 6 0 13 11 15 23 3 20 7 21 50 16 54 -6 105 -39 78 -49 -24 -9 -19 -22 7 -19 12 1 49 3 82 4 43 1 56 4 45 11 -12 7 -8 10 15 10 17 0 25 -4 18 -8 -6 -4 35 -8 90 -9 120 -1 335 -10 427 -18 83 -6 592 -13 563 -8 -56 11 -14 18 90 16 70 -2 105 1 92 6 -11 5 -108 10 -215 11 -325 2 -362 7 -425 55 -25 19 -46 32 -46 27 -1 -4 -2 -11 -3 -17 -3 -28 -33 -75 -46 -74 -10 0 -11 2 -2 6 25 10 11 18 -27 15 -53 -5 -81 11 -81 48 l0 30 -78 0 c-64 0 -82 4 -95 18 -29 32 -21 83 22 144 l39 56 -54 -1 -54 -2 0 -131 c0 -149 -2 -153 -73 -161 -72 -8 -76 1 -78 157 l-1 136 -33 -4 -33 -4 1 -81 2 -82 30 -5 c20 -4 26 -8 17 -13 -7 -5 -20 -6 -30 -3 -14 5 -17 -1 -18 -39 -1 -39 2 -45 20 -45 12 0 28 -5 36 -11 11 -7 6 -8 -20 -3 -42 8 -43 8 -100 0 -51 -7 -46 -11 -157 106 l-73 76 0 -44 c0 -41 2 -44 26 -44 30 0 67 -18 60 -29 -7 -11 -59 -1 -68 13 -4 6 -8 0 -8 -14 0 -14 -7 -33 -14 -43 -13 -16 -33 -18 -221 -17 -139 0 -212 4 -221 11 -10 8 -14 40 -14 113 -1 97 -1 100 -16 73 -9 -16 -13 -35 -10 -43 3 -8 2 -13 -2 -10 -5 3 -25 -28 -44 -68 -35 -70 -39 -74 -75 -78 -63 -8 -73 0 -112 83 l-37 79 -18 -41 c-20 -45 -80 -93 -135 -110 -21 -6 -109 -9 -211 -7 l-175 3 -20 43 c-19 41 -21 42 -67 42 -46 0 -47 -1 -67 -45 l-20 -45 -70 0 c-109 0 -109 2 -5 228 48 103 94 195 102 205 11 12 30 17 63 17 l49 0 51 -107 c28 -60 56 -119 62 -133 10 -21 12 -5 15 94 2 74 7 125 15 134 17 21 239 12 284 -11 39 -21 53 -21 53 -3 0 9 -16 16 -45 20 -24 4 -47 11 -50 16 -3 5 -47 9 -98 10 -110 2 -104 2 -146 -6 -23 -5 -29 -9 -20 -15 9 -6 -2 -9 -31 -10 -38 -1 -41 -2 -16 -8 17 -3 29 -10 27 -15 -1 -5 3 -13 11 -17 9 -6 3 -9 -17 -10 -29 -1 -30 -1 -5 -9 14 -4 21 -9 15 -9 -5 -1 -3 -6 5 -11 11 -7 6 -10 -20 -9 -29 0 -31 2 -15 9 11 5 14 9 7 9 -14 1 -49 31 -36 31 3 0 1 7 -6 15 -6 8 -9 19 -6 24 4 6 -8 15 -26 20 -30 8 -31 9 -8 11 14 1 32 2 40 1 12 -1 12 0 2 7 -7 5 -34 5 -60 1 -26 -4 -50 -5 -54 -3 -4 2 -10 -1 -13 -7 -4 -6 -19 -8 -34 -5 -19 5 -22 4 -11 -4 11 -7 -2 -10 -50 -12 l-65 -2 58 -3 c50 -3 57 -6 47 -19 -13 -14 -35 -20 -27 -6 6 8 -160 8 -183 -1 -8 -3 -22 -8 -30 -10 -8 -3 24 -3 71 0 90 6 168 -3 153 -17 -13 -12 -208 -19 -228 -8 -23 13 -20 36 7 41 18 4 17 4 -6 6 -16 0 -26 5 -23 10 4 5 0 12 -6 14 -10 4 -9 8 2 16 13 9 13 11 -2 11 -9 0 -19 4 -23 9 -3 6 73 10 202 9 115 -1 223 2 240 6 28 7 31 9 19 22 -8 8 -23 14 -33 13 -17 0 -16 -1 1 -8 32 -12 3 -20 -57 -16 -34 3 -57 1 -57 -5 0 -13 -57 -13 -65 0 -3 6 -19 10 -36 10 -16 0 -29 -4 -29 -10 0 -5 -5 -10 -11 -10 -5 0 -8 4 -4 9 3 6 -30 7 -86 4 -72 -5 -90 -3 -84 6 4 8 -1 18 -14 27 -43 31 -7 40 163 43 88 1 163 5 166 7 3 3 -59 4 -137 2 -77 -2 -140 -1 -138 2 2 3 -18 4 -44 2 -37 -3 -50 1 -65 17 l-19 21 54 1 54 1 -51 8 c-55 8 -105 29 -71 30 10 0 15 5 12 11 -4 6 -14 8 -22 5 -8 -3 -11 -2 -8 3 3 5 -5 11 -17 13 -45 6 -22 22 34 22 31 1 54 -2 51 -6 -5 -9 -5 -9 87 -12 36 -1 71 -5 78 -10 7 -4 12 -1 12 8 0 10 6 13 15 10 8 -4 12 -10 9 -15 -3 -5 5 -9 18 -10 13 0 56 -1 96 -2 51 -1 72 -5 72 -14 0 -16 -34 -17 -61 -3 -10 6 -19 7 -19 2 0 -4 -24 -8 -54 -7 -30 0 -52 3 -49 8 2 4 -23 7 -56 7 -34 0 -61 -4 -61 -10 0 -5 -8 -10 -17 -10 -15 0 -16 2 -3 10 13 8 13 10 -2 10 -22 0 -48 -10 -48 -19 0 -11 78 -13 85 -1 3 5 11 10 16 10 6 0 7 -5 3 -12 -7 -11 10 -9 50 8 14 5 17 4 12 -4 -7 -12 101 -16 367 -14 59 0 105 -3 102 -8 -3 -4 18 -8 46 -8 83 -1 53 21 -47 34 -62 9 -93 9 -101 2 -9 -7 -17 -7 -25 -1 -19 15 -57 22 -63 13 -3 -5 3 -10 12 -12 10 -2 -3 -4 -29 -4 -27 -1 -48 3 -48 8 0 7 24 12 43 9 5 -1 6 3 3 8 -4 5 -14 10 -24 9 -9 0 -48 3 -87 7 -38 4 -78 7 -88 7 -9 -1 -15 3 -13 7 3 4 -19 9 -49 10 -29 1 -56 -3 -60 -9 -3 -5 -12 -10 -18 -10 -7 0 -6 4 3 10 8 5 11 12 7 17 -4 4 -17 1 -29 -6 -11 -7 -17 -8 -13 -2 4 7 -6 11 -27 12 -158 3 -183 9 -333 79 -102 47 -170 62 -310 65 -111 3 -142 0 -210 -19z m-515 -198 c0 -4 -9 -8 -20 -8 -11 0 -20 4 -20 8 0 4 9 8 20 8 11 0 20 -4 20 -8z m1907 -4 c-3 -3 -12 -4 -19 -1 -8 3 -5 6 6 6 11 1 17 -2 13 -5z m-267 -314 c0 -10 -65 -16 -128 -11 -24 1 -32 -1 -27 -9 5 -8 28 -10 71 -7 37 3 64 2 64 -4 0 -5 -9 -9 -20 -9 -11 0 -20 -5 -20 -11 0 -6 7 -9 15 -5 17 6 19 -2 6 -23 -5 -8 -19 -12 -35 -9 -14 3 -23 1 -20 -3 3 -5 14 -9 26 -9 16 0 18 -3 9 -13 -6 -8 -32 -14 -63 -14 -52 -1 -52 -1 -13 7 l40 7 -37 2 c-20 0 -40 -4 -44 -10 -11 -19 -25 5 -28 52 -3 38 0 45 18 51 18 5 17 6 -9 9 -16 2 13 6 65 9 52 3 103 7 113 8 9 1 17 -2 17 -8z m278 -48 c2 -12 -1 -22 -7 -22 -6 0 -8 7 -5 15 4 8 1 15 -5 15 -6 0 -11 5 -11 11 0 20 25 3 28 -19z m1562 -73 c0 -14 -17 -10 -23 5 -4 10 -1 13 9 9 7 -3 14 -9 14 -14z m216 4 c-4 -23 -36 -30 -36 -8 0 9 4 14 9 10 5 -3 12 -1 16 5 9 15 14 12 11 -7z m-2121 -33 c-3 -5 -14 -10 -23 -10 -14 0 -15 -2 -2 -10 12 -8 12 -10 -3 -16 -9 -3 -14 -10 -11 -15 3 -5 0 -9 -6 -9 -6 0 -8 -4 -5 -10 4 -6 -12 -10 -39 -10 -34 0 -46 4 -46 15 0 8 9 15 21 15 11 0 17 -4 14 -10 -3 -5 -1 -10 4 -10 6 0 11 5 11 10 0 6 8 10 17 10 9 0 13 3 9 7 -4 4 -22 6 -40 5 -29 -2 -34 1 -38 23 -5 25 -5 25 69 25 47 0 72 -4 68 -10z m1905 0 c12 -8 12 -10 -5 -11 -11 0 -14 -3 -7 -6 18 -7 14 -33 -5 -33 -14 0 -15 2 -5 9 10 6 10 10 -2 21 -26 21 -5 39 24 20z m-1960 -100 c-8 -5 -11 -10 -7 -10 21 0 -24 -29 -49 -32 -21 -2 -29 2 -32 16 -3 15 0 18 17 13 12 -3 21 -1 21 3 0 5 -10 11 -22 13 -13 2 2 5 32 5 39 1 51 -1 40 -8z m1140 -18 c0 -5 -7 -9 -15 -9 -8 0 -15 4 -15 9 0 4 7 8 15 8 8 0 15 -4 15 -8z m-267 -9 c-19 -7 -16 -20 7 -26 11 -3 20 -12 20 -21 0 -13 -12 -16 -60 -16 -64 0 -74 5 -37 19 14 5 25 4 30 -3 6 -7 7 -6 4 4 -5 17 20 50 37 49 6 0 6 -3 -1 -6z m265 -21 c-10 -2 -18 -7 -18 -12 0 -5 -7 -7 -15 -4 -8 4 -12 10 -9 15 3 5 10 7 15 4 5 -4 9 -2 9 4 0 6 8 7 18 3 16 -6 16 -7 0 -10z m-883 -2 c-3 -5 3 -10 15 -10 12 0 18 -4 15 -10 -3 -5 0 -10 7 -11 10 0 10 -2 1 -6 -8 -3 -3 -13 15 -30 23 -22 33 -24 71 -19 25 3 41 3 37 -1 -4 -4 -71 -8 -149 -8 -78 0 -134 1 -124 3 9 2 15 7 12 12 -6 9 37 23 77 25 37 2 45 11 13 17 -14 3 -25 2 -25 -1 0 -4 -9 -7 -20 -8 -11 -1 -20 4 -20 13 0 13 18 19 47 15 8 -1 10 5 7 14 -4 10 0 15 11 15 9 0 13 -4 10 -10z m1715 6 c0 -9 -30 -14 -35 -6 -4 6 3 10 14 10 12 0 21 -2 21 -4z m203 -3 c-7 -2 -19 -2 -25 0 -7 3 -2 5 12 5 14 0 19 -2 13 -5z m161 -26 c-4 -11 -63 -14 -171 -8 -32 1 -29 19 5 23 60 7 171 -3 166 -15z m-2371 6 c-13 -2 -35 -2 -50 0 -16 2 -5 4 22 4 28 0 40 -2 28 -4z m4 -19 c-3 -3 -12 -4 -19 -1 -8 3 -5 6 6 6 11 1 17 -2 13 -5z m1178 -4 c-3 -5 -1 -10 5 -10 6 0 8 -4 5 -10 -5 -9 15 -15 38 -11 4 0 7 -4 7 -10 0 -7 12 -9 33 -6 17 3 41 1 52 -4 15 -7 11 -8 -15 -3 -26 4 -31 3 -20 -5 11 -8 4 -9 -25 -4 -22 3 -44 10 -49 14 -6 5 -24 9 -40 10 -17 1 -42 4 -56 8 l-25 7 30 16 c34 18 69 23 60 8z m812 4 c-3 -3 -12 -4 -19 -1 -8 3 -5 6 6 6 11 1 17 -2 13 -5z m-1967 -29 c-3 -5 -24 -10 -47 -10 -22 0 -39 -3 -36 -7 2 -5 -2 -8 -11 -8 -17 0 -15 28 2 39 17 10 98 -2 92 -14z m2574 10 c11 -8 29 -15 40 -15 20 -1 20 -1 3 -11 -14 -8 -22 -8 -30 0 -14 14 -30 15 -22 1 3 -5 1 -10 -4 -10 -6 0 -11 5 -11 10 0 6 -5 10 -11 10 -5 0 -7 -4 -4 -10 3 -5 -1 -10 -9 -10 -17 0 -20 9 -10 34 8 20 33 20 58 1z m-1644 -8 c0 -11 -27 -13 -158 -8 -13 1 -21 4 -19 9 3 4 44 8 91 9 63 2 86 -1 86 -10z m1437 -4 c3 -8 -16 -10 -69 -8 -40 2 -95 4 -121 4 -29 1 -46 5 -42 11 9 14 227 8 232 -7z m-1027 -7 c0 -3 -4 -8 -10 -11 -5 -3 -10 -1 -10 4 0 6 5 11 10 11 6 0 10 -2 10 -4z m-1210 -10 c0 -2 -9 -6 -20 -9 -11 -3 -18 -1 -14 4 5 9 34 13 34 5z m1350 -11 c0 -8 -7 -15 -15 -15 -26 0 -18 20 13 29 1 1 2 -6 2 -14z m1480 -11 c0 -2 -7 -4 -15 -4 -8 0 -15 4 -15 10 0 5 7 7 15 4 8 -4 15 -8 15 -10z m30 6 c0 -5 -5 -10 -11 -10 -5 0 -7 5 -4 10 3 6 8 10 11 10 2 0 4 -4 4 -10z m-2267 -250 c-7 -8 -52 -7 -47 1 2 4 15 6 28 5 13 0 22 -3 19 -6z m-416 -6 c-3 -3 -12 -4 -19 -1 -8 3 -5 6 6 6 11 1 17 -2 13 -5z m43 -4 c0 -5 -2 -10 -4 -10 -3 0 -8 5 -11 10 -3 6 -1 10 4 10 6 0 11 -4 11 -10z m43 3 c-7 -2 -19 -2 -25 0 -7 3 -2 5 12 5 14 0 19 -2 13 -5z"/> <path d="M2298 2193 c12 -2 30 -2 40 0 9 3 -1 5 -23 4 -22 0 -30 -2 -17 -4z"/> <path d="M2318 2143 c7 -3 16 -2 19 1 4 3 -2 6 -13 5 -11 0 -14 -3 -6 -6z"/> <path d="M2538 1853 c7 -3 16 -2 19 1 4 3 -2 6 -13 5 -11 0 -14 -3 -6 -6z"/> <path d="M1363 2734 c-72 -30 -142 -55 -162 -59 -38 -7 -150 -94 -197 -153 -95 -119 -137 -238 -137 -387 0 -168 57 -312 168 -433 99 -106 219 -181 345 -213 81 -21 280 -18 355 5 212 64 366 218 431 431 25 83 25 257 0 340 -22 71 -64 158 -105 218 -64 94 -221 211 -299 223 -47 7 -123 30 -118 35 11 11 -254 4 -281 -7z m369 -42 c106 -41 164 -80 246 -166 115 -122 172 -263 172 -428 0 -111 -14 -175 -56 -265 -112 -237 -395 -372 -664 -319 -244 49 -446 231 -511 461 -21 75 -18 266 5 335 52 155 163 278 325 360 93 46 167 60 296 56 93 -3 122 -8 187 -34z"/> <path d="M1476 2579 c-19 -15 -26 -30 -26 -55 0 -27 -4 -34 -20 -34 -16 0 -20 -7 -20 -30 0 -16 -4 -30 -10 -30 -5 0 -10 13 -10 29 0 25 -5 31 -37 41 -21 7 -46 19 -55 28 -12 10 -40 15 -83 16 -36 1 -65 1 -65 0 0 0 7 -16 16 -33 13 -26 14 -38 5 -57 -15 -33 -15 -33 13 -44 13 -5 30 -23 37 -40 11 -24 19 -30 36 -27 20 4 21 1 16 -26 -3 -16 -22 -45 -42 -63 -20 -18 -48 -54 -61 -81 -22 -42 -25 -61 -25 -153 0 -96 3 -110 29 -159 42 -80 116 -154 189 -187 57 -27 71 -29 177 -29 110 0 118 1 175 32 73 38 134 100 172 173 25 50 28 65 28 160 0 98 -2 109 -32 166 -45 87 -120 148 -217 179 -10 3 -17 7 -15 9 5 5 133 -19 148 -28 7 -4 11 0 11 11 0 21 29 59 50 65 10 3 14 20 15 54 0 27 4 56 8 64 11 24 -123 22 -141 -2 -7 -10 -27 -21 -44 -26 -26 -7 -31 -13 -34 -47 -3 -22 -5 -49 -5 -60 0 -16 -2 -17 -9 -5 -6 8 -9 29 -8 45 2 36 -7 55 -28 55 -9 0 -14 11 -14 30 0 38 -39 80 -73 80 -13 0 -36 -9 -51 -21z m84 -28 c5 -11 10 -29 10 -40 0 -18 -6 -21 -45 -21 -53 0 -66 17 -41 55 20 30 61 33 76 6z m-260 -43 c14 -9 35 -19 48 -23 17 -5 22 -14 22 -41 0 -19 -4 -34 -8 -34 -4 0 -23 13 -42 30 -19 16 -41 29 -48 30 -7 0 -11 4 -8 8 2 4 -4 8 -14 8 -15 0 -17 -3 -7 -15 10 -12 9 -13 -11 -2 -13 7 -26 10 -29 7 -3 -3 2 -8 11 -12 14 -5 14 -9 4 -23 -12 -14 -11 -14 4 -3 20 16 67 4 108 -28 l25 -20 -54 0 c-51 0 -53 -1 -35 -15 16 -13 16 -14 1 -9 -9 3 -32 21 -50 39 -26 26 -32 41 -32 76 l-1 44 46 0 c25 0 56 -8 70 -17z m556 -27 c-1 -33 -7 -51 -27 -70 -14 -14 -28 -32 -30 -39 -3 -9 -13 -10 -39 -2 -19 5 -48 10 -63 10 -16 0 -26 4 -22 10 3 6 25 10 48 11 23 0 51 4 62 9 13 6 5 7 -25 3 l-45 -5 34 26 c19 14 44 29 55 32 20 7 20 7 -3 16 -20 7 -30 3 -53 -19 -15 -15 -28 -23 -28 -17 0 5 -5 1 -11 -8 -15 -27 -29 -22 -29 11 0 22 6 31 30 41 16 7 34 18 40 25 6 7 31 12 59 11 l48 -1 -1 -44z m-306 -11 l78 0 -1 -60 c-1 -50 -4 -59 -17 -54 -17 8 -39 8 -91 -2 -34 -5 -36 -4 -42 24 -3 17 -15 39 -27 50 -23 21 -18 57 7 48 8 -3 50 -6 93 -6z m-109 -60 c28 -16 25 -58 -6 -72 -22 -10 -29 -9 -47 10 -20 20 -20 22 -4 46 18 29 28 31 57 16z m-75 -71 c20 -22 13 -43 -19 -63 -36 -23 -75 36 -47 70 17 20 44 17 66 -7z m238 2 c15 -6 26 -6 28 -1 6 18 126 -47 167 -90 160 -165 113 -439 -93 -540 -119 -59 -265 -50 -378 22 -85 54 -150 161 -164 268 -7 53 -6 54 12 39 10 -9 27 -19 36 -22 18 -6 15 -37 -4 -37 -6 0 -4 7 3 17 13 15 12 15 -9 4 -18 -9 -21 -17 -16 -39 24 -100 89 -179 190 -228 71 -35 83 -38 163 -38 73 0 95 4 146 28 33 15 75 41 93 59 62 59 113 197 78 210 -9 4 -16 2 -16 -3 0 -6 -9 -10 -20 -10 -11 0 -20 5 -20 10 0 20 -20 9 -26 -14 -3 -14 -14 -32 -25 -42 -24 -21 -24 -33 -2 -50 10 -7 15 -16 11 -20 -4 -4 -14 -1 -23 6 -12 10 -15 10 -15 -4 0 -9 -5 -16 -11 -16 -7 0 -9 10 -5 25 7 27 -3 32 -22 13 -6 -6 -15 -9 -19 -5 -3 4 1 13 11 20 16 12 16 14 2 26 -26 21 -18 35 9 17 24 -16 25 -16 25 9 0 14 5 25 10 25 6 0 10 -7 10 -16 0 -14 3 -14 15 -4 13 11 13 14 -2 26 -16 12 -16 13 9 14 15 0 30 5 34 11 4 8 -13 8 -62 2 -102 -12 -349 -9 -429 6 -38 8 -84 21 -101 30 l-32 16 13 48 c13 52 47 105 88 137 25 20 28 20 52 4 13 -9 32 -14 40 -10 9 3 29 -3 44 -15 61 -45 148 33 95 85 -14 15 -13 16 13 16 15 0 35 5 43 10 19 12 23 12 54 1z m-124 -36 c22 -26 -3 -65 -40 -65 -23 0 -33 6 -42 25 -14 32 3 55 42 55 15 0 33 -7 40 -15z m-167 -314 c4 -4 -3 -12 -15 -18 -19 -9 -26 -7 -40 12 -17 23 -17 23 15 18 17 -2 35 -8 40 -12z m396 -9 c-6 -10 -21 -18 -33 -18 -17 1 -21 -5 -21 -28 0 -16 -6 -31 -12 -33 -10 -4 -9 -8 1 -19 8 -8 19 -14 24 -14 5 0 17 -9 27 -20 14 -15 21 -17 32 -9 10 9 13 8 13 -1 0 -9 5 -8 18 3 18 16 32 14 32 -6 0 -5 -6 -7 -14 -4 -10 4 -12 0 -9 -13 3 -11 -1 -26 -9 -33 -17 -18 -94 -58 -105 -55 -5 1 -24 -3 -43 -8 -19 -6 -57 -8 -83 -6 -46 4 -48 5 -31 23 13 14 14 22 5 32 -6 8 -8 17 -4 20 3 4 0 7 -8 8 -8 0 -31 2 -53 3 -33 3 -35 1 -19 -8 11 -6 18 -16 16 -23 -2 -7 1 -21 7 -33 11 -20 11 -21 -26 -5 -20 8 -38 15 -41 15 -2 0 -3 7 -1 16 2 10 -3 19 -11 22 -8 3 -11 0 -7 -7 16 -25 -14 -9 -41 22 -15 18 -24 27 -19 20 5 -8 4 -13 -1 -13 -19 0 -63 75 -58 99 3 17 0 21 -10 17 -9 -3 -15 1 -15 9 0 8 5 15 10 15 6 0 11 10 11 23 1 16 2 18 6 5 2 -10 9 -18 14 -18 5 0 6 -21 2 -47 -4 -34 -3 -44 6 -39 6 4 9 11 6 16 -7 11 5 40 16 40 5 0 9 -8 9 -19 0 -10 7 -24 15 -31 8 -7 15 -9 15 -4 0 4 6 -1 14 -11 13 -18 15 -18 49 -2 42 20 53 35 39 49 -6 6 -8 17 -5 26 4 8 -2 21 -12 28 -21 16 -21 16 58 19 51 3 60 -5 25 -20 -32 -14 -34 -82 -4 -91 12 -4 28 -13 37 -21 14 -12 19 -12 32 2 9 8 25 15 38 15 19 0 21 4 15 31 -3 17 -6 37 -6 45 0 7 -9 16 -20 19 -38 12 -9 25 56 24 36 -1 68 2 71 5 12 12 13 6 2 -12z m-349 -16 c0 -9 7 -13 20 -11 28 5 35 -14 9 -24 l-23 -8 22 -12 c12 -6 22 -17 22 -23 0 -6 -11 -3 -25 6 -24 16 -25 15 -25 -3 0 -11 -4 -23 -10 -26 -6 -4 -10 5 -10 21 0 23 -2 25 -15 14 -9 -7 -19 -10 -23 -6 -4 4 1 12 11 17 16 10 16 12 -5 29 -17 15 -19 19 -7 20 8 0 20 -5 27 -12 9 -9 12 -7 12 10 0 12 5 22 10 22 6 0 10 -6 10 -14z m206 -16 c33 0 30 -18 -3 -27 l-28 -7 29 -6 c16 -3 31 -11 34 -19 3 -9 0 -12 -9 -9 -8 4 -22 9 -31 13 -14 6 -18 2 -18 -15 0 -12 -4 -18 -11 -15 -6 4 -8 13 -5 21 4 10 -3 12 -27 8 -29 -4 -30 -3 -10 7 l22 12 -22 18 c-22 18 -22 18 -1 19 11 0 26 -6 33 -12 10 -11 12 -10 11 2 -1 8 -1 22 0 30 2 11 3 11 7 -2 3 -11 14 -18 29 -18z m234 11 c0 -11 -4 -23 -10 -26 -5 -3 -10 -11 -10 -17 0 -7 6 -6 15 2 8 7 15 21 15 31 0 12 5 16 15 13 8 -4 15 -1 15 5 0 6 5 11 10 11 7 0 7 -6 0 -19 -5 -11 -7 -26 -4 -34 3 -8 -2 -17 -10 -20 -9 -4 -16 -15 -16 -26 0 -11 -4 -23 -10 -26 -6 -4 -7 6 -3 26 4 23 3 30 -5 25 -7 -4 -12 -15 -13 -24 0 -14 -2 -13 -9 3 -5 11 -9 16 -9 12 -1 -5 -6 -5 -11 -2 -7 4 -5 14 5 28 8 12 15 29 15 39 0 10 5 18 10 18 6 0 10 -9 10 -19z m-315 -211 c-4 -7 -13 -6 -26 1 -16 8 -18 13 -9 24 10 12 14 12 27 0 8 -8 11 -19 8 -25z"/> <path d="M1319 2463 c14 -28 17 -28 25 -6 4 10 4 14 0 10 -4 -4 -14 -1 -22 6 -13 10 -14 9 -3 -10z"/> <path d="M1795 2440 c3 -5 12 -10 20 -10 8 0 17 5 20 10 4 6 -5 10 -20 10 -15 0 -24 -4 -20 -10z"/> <path d="M1470 2442 c0 -4 9 -14 20 -22 11 -8 20 -25 20 -38 0 -13 4 -21 9 -18 4 3 4 24 -2 46 -8 28 -17 40 -29 40 -10 0 -18 -4 -18 -8z"/> <path d="M1400 2361 c0 -19 22 -23 38 -7 15 15 14 16 -11 16 -15 0 -27 -4 -27 -9z"/> <path d="M1625 2281 c-31 -15 -54 -39 -54 -56 0 -5 8 0 18 12 39 47 115 57 155 19 15 -13 26 -26 26 -30 0 -3 9 -15 20 -26 27 -27 34 -64 18 -97 -10 -21 -20 -28 -43 -28 -23 0 -30 5 -30 20 0 12 -8 21 -20 23 -12 2 -16 0 -9 -5 6 -4 14 -17 18 -29 6 -19 2 -22 -46 -27 -79 -9 -329 0 -362 12 -28 11 -28 12 -10 26 15 11 17 17 8 32 -6 10 -20 18 -30 18 -25 0 -35 -36 -15 -52 14 -11 12 -12 -11 -13 -31 0 -44 15 -29 34 6 7 8 16 5 19 -3 3 -2 12 2 19 5 7 9 15 9 18 3 19 18 50 25 50 4 0 11 7 14 16 6 15 4 15 -14 3 -12 -8 -28 -25 -35 -39 -21 -37 -55 -113 -52 -116 1 -1 27 -10 57 -19 71 -23 372 -32 481 -16 104 16 139 30 138 56 -1 17 -2 17 -6 2 -4 -17 -25 -21 -24 -4 1 4 1 14 1 23 0 8 5 12 11 9 29 -18 -36 78 -79 116 -53 48 -85 55 -137 30z m-322 -166 c-6 -17 -25 -15 -31 3 -2 7 5 12 17 12 14 0 19 -5 14 -15z"/> <path d="M1631 2215 c-1 -5 -5 -17 -11 -25 -7 -12 -12 -11 -31 5 l-22 20 12 -23 c10 -19 18 -22 38 -17 20 5 32 0 54 -21 16 -15 29 -24 29 -19 0 4 -13 20 -29 35 -16 16 -31 34 -34 41 -3 8 -6 10 -6 4z"/> <path d="M1706 2202 c-3 -6 -1 -14 5 -17 15 -10 25 3 12 16 -7 7 -13 7 -17 1z"/> <path d="M1770 2150 c0 -5 5 -10 11 -10 5 0 7 5 4 10 -3 6 -8 10 -11 10 -2 0 -4 -4 -4 -10z"/> <path d="M1492 2128 c-16 -16 -15 -33 2 -47 18 -15 46 -3 46 20 0 24 -33 42 -48 27z m38 -22 c0 -20 -12 -27 -26 -15 -7 6 -10 17 -8 24 7 16 34 8 34 -9z"/> <path d="M1404 2105 c-7 -18 -31 -20 -37 -2 -2 6 -8 9 -12 4 -10 -8 26 -38 37 -31 11 7 30 44 23 44 -3 0 -8 -7 -11 -15z"/> <path d="M1833 2037 c-18 -6 -33 -17 -33 -24 0 -7 2 -13 5 -13 12 0 75 35 75 42 0 9 -4 9 -47 -5z"/> <path d="M1409 2273 c12 -23 45 -31 56 -13 3 6 -1 7 -10 4 -9 -4 -25 2 -37 12 -21 19 -21 19 -9 -3z"/> <path d="M1297 1859 c7 -7 15 -10 18 -7 3 3 -2 9 -12 12 -14 6 -15 5 -6 -5z"/> <path d="M1324 1825 c3 -24 19 -33 41 -25 18 6 17 8 -12 23 -27 14 -31 14 -29 2z"/> <path d="M1593 1793 c3 -3 2 -15 -3 -28 -12 -31 12 -41 35 -15 19 22 14 35 -16 43 -11 3 -19 3 -16 0z m31 -22 c3 -5 -1 -11 -9 -15 -9 -3 -15 0 -15 9 0 16 16 20 24 6z"/> <path d="M2116 2571 c-4 -5 3 -7 14 -4 23 6 26 13 6 13 -8 0 -17 -4 -20 -9z"/> <path d="M2890 2532 c0 -11 3 -13 8 -5 7 11 98 11 109 -1 4 -3 11 -6 17 -6 6 0 2 6 -9 12 -11 7 -44 13 -72 15 -44 2 -53 -1 -53 -15z"/> <path d="M2220 2520 c0 -5 7 -10 16 -10 8 0 12 5 9 10 -3 6 -10 10 -16 10 -5 0 -9 -4 -9 -10z"/> <path d="M2298 2523 c7 -3 16 -2 19 1 4 3 -2 6 -13 5 -11 0 -14 -3 -6 -6z"/> <path d="M755 2515 c-5 -1 -30 -8 -55 -15 -59 -17 -127 -47 -135 -60 -9 -14 53 -1 97 21 20 10 67 27 105 38 55 16 61 20 33 20 -19 -1 -39 -2 -45 -4z"/> <path d="M2425 2508 c7 -5 24 -8 37 -7 12 1 86 -2 163 -6 77 -4 194 -8 260 -10 66 -2 156 -6 200 -9 152 -11 350 -17 343 -11 -3 3 -28 8 -54 10 -27 2 -83 7 -124 11 -41 4 -91 7 -110 8 -24 1 -34 5 -32 15 2 9 -3 11 -13 7 -9 -3 -29 -6 -43 -7 l-27 -1 25 -8 25 -8 -27 -1 c-14 -1 -28 4 -30 9 -2 7 -111 11 -305 13 -166 1 -296 -1 -288 -5z"/> <path d="M900 2500 c-11 -7 -11 -10 -2 -10 31 0 -3 -20 -36 -21 l-37 -1 33 -9 c28 -8 31 -12 19 -24 -10 -10 -39 -14 -101 -13 -47 1 -89 -2 -93 -7 -5 -4 -2 -5 5 -1 6 4 12 2 12 -3 0 -6 -18 -10 -42 -10 -30 2 -35 3 -15 6 15 2 27 9 27 14 0 13 -26 11 -67 -6 -29 -12 -39 -13 -52 -3 -14 12 -14 11 -2 -4 7 -10 26 -18 42 -18 36 0 38 -17 4 -30 -14 -5 -25 -14 -25 -19 0 -5 53 6 118 24 161 45 172 47 172 35 0 -6 -10 -15 -22 -20 -17 -6 -19 -9 -6 -9 11 -1 15 -6 12 -15 -3 -8 -15 -13 -27 -11 -24 5 -67 -4 -67 -14 0 -3 21 -5 46 -2 44 3 45 2 35 -17 -18 -34 -6 -32 -229 -33 -46 0 -80 -15 -112 -49 -33 -35 -34 -34 33 -16 29 8 66 17 82 20 17 2 53 9 80 14 106 22 133 23 131 6 -1 -9 -9 -20 -17 -25 -8 -5 -9 -9 -4 -9 6 0 11 -9 11 -20 0 -13 -7 -20 -21 -21 -17 -1 -17 -2 -2 -6 34 -9 18 -32 -25 -36 l-43 -4 41 -1 c32 -2 43 -7 47 -22 5 -21 -16 -26 -128 -33 -44 -3 -41 -4 20 -7 39 -1 79 -3 90 -4 15 -1 20 -9 22 -31 1 -16 7 -50 14 -74 10 -35 10 -45 -2 -52 -11 -7 -11 -9 3 -9 24 0 45 -40 27 -51 -11 -7 -11 -9 2 -9 22 0 33 -29 14 -36 -8 -4 -31 -4 -49 -2 -19 2 -32 0 -29 -5 3 -5 -3 -7 -13 -3 -11 3 -71 7 -134 10 -91 3 -108 2 -80 -6 42 -13 228 -18 287 -8 24 4 40 4 38 -1 -3 -4 3 -12 12 -18 17 -10 17 -10 1 -11 -10 0 -18 -4 -18 -9 0 -6 -19 -14 -42 -20 l-43 -11 42 5 c23 3 48 7 56 11 14 5 67 -35 67 -51 0 -4 11 -16 25 -27 14 -11 23 -24 20 -29 -4 -5 0 -9 7 -9 8 0 22 -6 32 -13 16 -12 16 -13 -1 -14 -59 -4 -94 -13 -107 -26 -15 -14 -12 -27 6 -27 5 0 7 4 3 9 -5 10 13 18 62 28 40 8 67 6 71 -7 2 -5 10 -10 18 -10 9 0 12 -4 9 -10 -3 -6 4 -10 17 -11 22 0 22 -1 3 -9 -16 -7 -13 -9 18 -9 20 -1 37 -5 37 -10 0 -5 16 -12 36 -15 19 -4 37 -13 40 -19 2 -7 14 -14 26 -14 11 -1 25 -6 31 -12 9 -9 -21 -8 -100 3 -12 2 -24 -2 -27 -9 -3 -9 7 -13 32 -12 20 0 44 -3 52 -6 70 -27 553 -25 615 2 11 5 36 14 55 20 33 10 32 10 -15 5 -138 -14 -170 -15 -155 -5 8 5 28 7 45 5 21 -4 26 -3 16 4 -20 14 -3 19 61 17 31 -1 55 2 52 7 -8 13 11 9 25 -4 10 -11 11 -9 5 6 -6 15 -4 17 6 11 18 -11 58 -13 95 -4 87 21 89 21 77 6 -10 -12 -4 -13 40 -9 29 2 57 8 63 13 13 13 37 11 29 -2 -5 -9 1 -10 22 -4 16 4 56 7 89 7 33 0 65 4 71 9 20 17 55 21 189 24 182 4 185 4 185 13 0 10 -352 3 -365 -8 -5 -4 -109 -11 -230 -15 -253 -7 -267 -9 -317 -29 -23 -10 -39 -12 -43 -6 -3 6 1 10 9 10 9 0 16 5 16 10 0 6 12 10 26 10 14 0 23 4 19 10 -3 6 4 10 17 10 21 1 21 2 5 11 -14 8 -28 4 -65 -18 -114 -70 -212 -95 -371 -95 -227 -1 -418 92 -567 277 -100 124 -143 250 -144 420 0 121 25 223 76 308 18 32 34 60 34 63 0 7 -25 4 -40 -6z m1347 -996 c-3 -3 -12 -4 -19 -1 -8 3 -5 6 6 6 11 1 17 -2 13 -5z"/> <path d="M2298 2503 c7 -3 16 -2 19 1 4 3 -2 6 -13 5 -11 0 -14 -3 -6 -6z"/> <path d="M848 2483 c7 -3 16 -2 19 1 4 3 -2 6 -13 5 -11 0 -14 -3 -6 -6z"/> <path d="M770 2460 c-18 -12 -2 -12 25 0 13 6 15 9 5 9 -8 0 -22 -4 -30 -9z"/> <path d="M2441 2452 c-30 -2 -64 -10 -75 -19 -20 -15 -20 -15 -1 -8 11 5 51 8 89 8 38 -1 65 2 60 6 -5 3 -11 8 -14 11 -3 3 -29 4 -59 2z"/> <path d="M2590 2451 c-8 -6 -26 -7 -40 -4 -14 3 -22 2 -18 -2 11 -11 82 -13 89 -3 3 5 50 4 105 -3 54 -7 129 -12 167 -12 37 0 67 -3 67 -7 0 -4 11 -10 25 -12 30 -6 33 0 6 10 -12 4 6 7 44 8 35 0 62 -3 59 -8 -3 -4 66 -9 153 -10 87 -1 172 -2 188 -3 17 0 35 -4 42 -8 7 -4 23 -6 37 -3 14 2 38 1 53 -4 21 -6 23 -9 8 -9 -17 -1 -17 -3 -5 -11 20 -13 -47 -13 -86 0 -70 23 -263 29 -226 6 6 -4 17 -4 23 0 6 3 15 0 20 -7 7 -11 9 -11 9 -1 0 13 3 13 115 -4 17 -2 77 -8 135 -13 l105 -8 -131 -1 c-128 -2 -131 -2 -144 -27 -7 -14 -23 -25 -34 -26 -21 0 -21 -1 -1 -9 l20 -9 -20 -1 c-11 -1 -14 -4 -8 -7 18 -7 -2 -42 -22 -39 -9 1 -15 6 -15 12 1 5 8 8 16 6 26 -5 15 9 -18 23 -18 8 -27 14 -19 15 9 0 6 7 -9 20 -22 19 -22 20 -3 20 11 0 20 6 20 13 0 13 -8 14 -109 19 -32 2 -58 5 -58 8 0 3 -24 5 -53 4 -28 0 -62 4 -75 10 -16 6 -26 6 -34 -2 -9 -9 -6 -12 14 -12 15 0 29 -4 32 -8 3 -5 29 -7 58 -6 42 2 47 1 23 -5 -34 -10 -27 -11 79 -14 l70 -2 40 -97 40 -97 33 72 c18 40 33 78 33 84 0 7 11 20 24 28 21 14 66 16 313 16 158 -1 305 -5 325 -10 20 -5 39 -6 42 -3 3 3 30 4 58 3 29 -1 133 -3 231 -4 208 -2 212 -4 204 -92 -4 -49 -4 -50 12 -25 9 13 29 39 44 57 23 26 32 31 47 23 10 -6 28 -10 39 -10 12 0 21 -4 21 -9 0 -14 -33 -23 -41 -10 -9 15 -162 -183 -170 -222 l-6 -29 98 0 99 0 0 -40 c0 -36 3 -40 25 -40 23 0 25 4 25 40 0 36 3 40 25 40 20 0 25 5 25 25 0 20 -5 25 -25 25 -23 0 -25 4 -25 43 0 38 -2 42 -25 43 -23 2 -25 -1 -25 -42 l0 -44 -60 0 c-33 0 -60 3 -60 6 0 3 25 35 56 72 31 36 67 83 81 103 15 23 30 36 39 32 16 -6 19 -54 4 -69 -7 -7 -3 -14 15 -22 25 -12 25 -11 25 38 0 42 3 50 19 50 17 0 19 -10 22 -128 3 -101 8 -134 22 -155 53 -81 209 -80 252 3 11 21 15 62 15 155 0 116 1 125 19 125 10 0 22 -7 25 -16 11 -29 7 -254 -6 -277 -14 -27 -50 -62 -86 -82 -27 -15 -27 -15 13 -8 22 3 45 6 50 6 166 -7 371 -10 345 -4 -19 4 -78 8 -130 9 -52 1 -125 5 -163 8 l-67 7 32 23 c33 25 75 33 62 12 -5 -7 -3 -8 7 -3 13 8 99 8 289 0 51 -2 113 2 154 11 85 18 95 24 30 19 -80 -7 -504 -6 -515 0 -7 5 -7 11 0 19 7 8 31 12 68 10 l58 -3 -55 10 c-30 6 -59 14 -63 18 -9 8 80 -3 128 -16 17 -5 78 -8 137 -8 60 0 108 -3 108 -6 0 -4 35 -7 78 -7 49 0 70 3 57 9 l-20 8 20 2 c11 1 26 2 32 2 7 -1 10 4 7 9 -4 6 -36 8 -80 5 -40 -3 -75 -3 -78 0 -3 3 -45 7 -93 9 -48 2 -131 6 -183 8 -52 3 -101 5 -107 6 -15 0 -17 27 -3 32 11 3 166 -8 220 -17 19 -3 65 -7 101 -9 36 -2 71 -6 77 -10 7 -4 12 -2 12 4 0 7 7 9 16 6 8 -3 12 -2 9 4 -3 5 -31 8 -61 6 -46 -3 -56 -1 -65 15 -5 11 -7 24 -4 29 3 5 0 12 -6 16 -7 4 -9 3 -5 -4 4 -7 -6 -12 -26 -14 -43 -4 -43 -22 0 -26 17 -2 32 -8 32 -13 0 -11 -49 -1 -68 14 -16 13 -152 26 -152 15 0 -5 -9 -4 -19 2 -11 5 -31 10 -45 10 -19 0 -24 4 -20 15 4 10 14 14 28 10 17 -5 18 -4 6 5 -11 8 -3 9 35 4 28 -4 59 -8 70 -9 11 -2 19 -6 18 -11 -1 -5 16 -8 38 -6 22 3 37 7 34 11 -11 11 -128 29 -177 27 -25 -1 -44 2 -42 6 3 5 0 8 -7 8 -7 0 -9 3 -5 7 4 4 22 6 41 5 43 -3 45 6 5 19 -18 7 -30 18 -30 29 0 9 -9 29 -20 43 -17 22 -27 25 -82 25 -67 -1 -108 -23 -108 -59 0 -10 -4 -21 -10 -24 -5 -3 -10 0 -10 9 0 8 -11 27 -24 43 -25 29 -26 29 -140 31 -71 0 -124 5 -138 13 -13 7 -37 12 -53 11 -17 -1 -47 6 -68 17 -30 15 -61 20 -145 21 -133 2 -132 2 -132 12 0 4 -10 7 -22 7 -17 -1 -19 -2 -5 -6 9 -2 17 -9 17 -14 0 -11 -27 -12 -34 -1 -5 9 -154 7 -163 -2 -4 -3 -17 1 -31 10 -23 15 -94 15 -109 1 -3 -4 -14 -2 -24 4 -14 7 -19 6 -19 -3 0 -8 -3 -9 -8 -3 -4 6 -27 12 -52 14 -24 2 -49 9 -55 16 -5 7 -32 16 -60 19 -37 4 -44 3 -27 -4 27 -12 29 -24 2 -15 -11 3 -35 -1 -54 -10 -25 -12 -40 -14 -53 -6 -15 8 -11 11 25 17 23 3 42 11 42 15 0 5 -18 6 -40 3 -43 -7 -94 2 -86 15 3 5 -23 8 -58 7 -38 -1 -62 2 -59 8 4 5 -4 7 -17 3 -13 -3 -30 -1 -37 5 -9 8 -13 7 -13 -2 0 -9 -4 -9 -17 1 -14 12 -16 12 -8 0 7 -11 4 -13 -11 -5 -10 5 -136 10 -279 12 -143 1 -303 4 -355 7 -56 3 -101 2 -110 -4z m600 -20 c0 -4 -11 -6 -25 -3 -14 2 -25 6 -25 8 0 2 11 4 25 4 14 0 25 -4 25 -9z m113 2 c-7 -2 -21 -2 -30 0 -10 3 -4 5 12 5 17 0 24 -2 18 -5z m407 -63 c0 -5 -7 -10 -16 -10 -8 0 -12 5 -9 10 3 6 10 10 16 10 5 0 9 -4 9 -10z m350 -14 c0 -2 -9 -6 -20 -9 -11 -3 -18 -1 -14 4 5 9 34 13 34 5z m-347 -13 c-7 -2 -19 -2 -25 0 -7 3 -2 5 12 5 14 0 19 -2 13 -5z m921 -58 c-4 -8 -13 -15 -21 -15 -13 0 -13 3 -3 15 7 8 16 15 21 15 5 0 6 -7 3 -15z m276 -34 c0 -6 -4 -13 -10 -16 -5 -3 -10 1 -10 9 0 9 5 16 10 16 6 0 10 -4 10 -9z m58 -39 c2 -23 7 -42 13 -42 5 0 9 4 9 8 0 4 11 9 25 10 14 1 25 -3 25 -8 0 -6 -5 -10 -11 -10 -5 0 -7 -5 -3 -11 4 -8 -3 -9 -26 -4 l-32 7 3 -59 c3 -78 12 -95 52 -91 l32 3 5 120 c5 116 6 120 28 123 l24 4 -4 -125 c-3 -117 -5 -127 -27 -151 -33 -35 -92 -36 -126 -1 -24 23 -25 30 -25 150 0 115 2 126 18 123 12 -2 18 -15 20 -46z m175 27 c-4 -16 -8 -17 -14 -7 -13 19 -11 28 5 28 9 0 12 -7 9 -21z m-1806 -35 c-3 -3 -12 -4 -19 -1 -8 3 -5 6 6 6 11 1 17 -2 13 -5z m1698 -74 c-3 -5 -13 -10 -21 -10 -8 0 -14 5 -14 10 0 6 9 10 21 10 11 0 17 -4 14 -10z m-7 -37 c-14 -17 -25 -16 -25 1 0 8 8 14 18 13 14 -1 15 -4 7 -14z m-430 -71 c-26 -5 -31 2 -23 27 l6 21 19 -22 c18 -23 18 -23 -2 -26z m442 33 c0 -8 -2 -15 -4 -15 -2 0 -12 -3 -22 -7 -13 -5 -16 -3 -11 10 3 8 1 18 -6 21 -7 2 0 5 16 5 18 1 27 -4 27 -14z m-260 -20 c16 -20 -9 -30 -48 -19 -20 5 -23 8 -9 11 9 3 17 9 17 14 0 14 26 11 40 -6z m-10 -39 c0 -3 -4 -8 -10 -11 -5 -3 -10 -1 -10 4 0 6 5 11 10 11 6 0 10 -2 10 -4z"/> <path d="M3485 2450 c-3 -5 3 -10 15 -10 12 0 18 5 15 10 -3 6 -10 10 -15 10 -5 0 -12 -4 -15 -10z"/> <path d="M2228 2443 c7 -3 16 -2 19 1 4 3 -2 6 -13 5 -11 0 -14 -3 -6 -6z"/> <path d="M2282 2443 c-19 -4 -20 -6 -8 -19 17 -16 30 -19 21 -4 -3 5 7 12 22 16 15 3 33 7 38 9 14 5 -46 3 -73 -2z"/> <path d="M2657 2429 c7 -7 15 -10 18 -7 3 3 -2 9 -12 12 -14 6 -15 5 -6 -5z"/> <path d="M3570 2429 c0 -12 25 -22 41 -17 6 2 0 9 -15 16 -16 7 -26 8 -26 1z"/> <path d="M3730 2430 c-13 -8 2 -11 125 -24 34 -4 45 -3 35 4 -8 5 -34 10 -57 10 -23 0 -52 4 -66 9 -13 5 -30 6 -37 1z"/> <path d="M2530 2426 c0 -2 7 -7 16 -10 8 -3 12 -2 9 4 -6 10 -25 14 -25 6z"/> <path d="M2743 2403 c15 -2 37 -2 50 0 12 2 0 4 -28 4 -27 0 -38 -2 -22 -4z"/> <path d="M2890 2390 c12 -8 12 -10 1 -10 -8 0 -12 -2 -9 -5 3 -3 13 -2 22 1 14 5 15 9 4 15 -7 5 -17 9 -23 9 -5 0 -3 -5 5 -10z"/> <path d="M3839 2387 c5 -5 19 -7 32 -5 20 3 19 5 -9 9 -20 3 -29 2 -23 -4z"/> <path d="M3985 2395 c23 -8 83 -10 79 -3 -3 4 -24 8 -47 7 -23 0 -37 -2 -32 -4z"/> <path d="M2695 2380 c3 -5 1 -10 -6 -10 -7 0 -10 -2 -7 -5 7 -8 38 5 38 16 0 5 -7 9 -16 9 -8 0 -12 -4 -9 -10z"/> <path d="M3158 2383 c18 -2 45 -2 60 0 15 2 0 4 -33 4 -33 0 -45 -2 -27 -4z"/> <path d="M2773 2372 c-13 -2 -23 -8 -23 -14 0 -6 7 -7 18 -2 9 4 37 6 62 5 24 -1 42 0 40 2 -8 7 -74 13 -97 9z"/> <path d="M698 2343 c7 -3 16 -2 19 1 4 3 -2 6 -13 5 -11 0 -14 -3 -6 -6z"/> <path d="M526 2308 c-17 -15 -26 -31 -22 -35 5 -4 11 -3 13 4 2 7 20 15 39 19 18 3 32 10 29 14 -3 5 -2 10 2 13 5 2 3 3 -3 1 -6 -1 -15 1 -20 5 -5 4 -22 -5 -38 -21z"/> <path d="M2276 2332 c-2 -4 17 -8 42 -10 26 -2 44 -1 42 1 -9 9 -79 17 -84 9z"/> <path d="M2698 2333 c7 -3 16 -2 19 1 4 3 -2 6 -13 5 -11 0 -14 -3 -6 -6z"/> <path d="M3320 2330 c12 -8 12 -10 1 -10 -8 0 -12 -2 -9 -5 3 -3 20 1 39 9 l34 15 -40 0 c-29 1 -36 -2 -25 -9z"/> <path d="M3930 2312 c0 -15 21 -19 55 -11 30 7 30 7 3 8 -14 0 -33 4 -42 7 -9 3 -16 2 -16 -4z"/> <path d="M4072 2293 c-6 -3 -9 -10 -5 -16 4 -6 1 -8 -8 -5 -39 16 -54 20 -40 10 11 -8 8 -11 -14 -14 l-28 -3 58 -67 c32 -37 59 -67 60 -65 0 1 -2 38 -5 83 -4 59 -8 80 -18 77z m-4 -40 c-10 -2 -28 -2 -40 0 -13 2 -5 4 17 4 22 1 32 -1 23 -4z m-10 -20 c-10 -2 -26 -2 -35 0 -10 3 -2 5 17 5 19 0 27 -2 18 -5z m6 -28 c-4 -8 -10 -12 -15 -9 -11 6 -2 24 11 24 5 0 7 -7 4 -15z"/> <path d="M3960 2280 c0 -13 11 -13 30 0 12 8 11 10 -7 10 -13 0 -23 -4 -23 -10z"/> <path d="M2560 2272 c-22 -3 -35 -25 -103 -170 -42 -92 -77 -170 -77 -174 0 -5 14 -8 31 -8 27 0 33 5 52 50 l21 50 81 0 82 0 23 -50 c21 -45 27 -50 57 -50 18 0 33 3 32 8 0 4 -39 84 -87 177 -80 157 -89 170 -112 167z m27 -48 c10 -23 10 -24 -8 -19 -11 4 -26 1 -34 -5 -18 -15 -19 -9 -3 25 14 32 30 32 45 -1z m53 -164 c7 0 9 7 6 16 -3 9 -2 12 5 9 13 -9 61 -116 54 -123 -2 -3 -12 11 -20 31 -8 21 -19 37 -24 37 -4 0 -19 9 -32 21 -19 16 -34 20 -71 17 -27 -2 -48 -1 -48 2 0 3 12 33 27 67 l27 62 32 -69 c18 -39 38 -70 44 -70z m-146 4 c9 -22 8 -24 -9 -24 -9 0 -18 -7 -21 -15 -4 -8 -10 -15 -15 -15 -5 0 -1 16 8 35 18 38 28 43 37 19z m-63 -97 c-10 -9 -11 -8 -5 6 3 10 9 15 12 12 3 -3 0 -11 -7 -18z"/> <path d="M2800 2096 l0 -178 103 4 c86 3 111 8 152 28 125 65 124 234 -3 299 -28 14 -64 20 -145 23 l-107 3 0 -179z m49 133 c-16 -30 -15 -245 1 -264 10 -12 9 -15 -3 -15 -23 0 -25 21 -22 160 3 151 2 140 20 140 13 0 14 -4 4 -21z m191 -36 c57 -51 56 -134 0 -188 -28 -26 -39 -30 -105 -33 l-75 -4 0 126 0 126 75 0 c67 0 78 -3 105 -27z m51 -5 c21 -23 23 -28 12 -28 -10 1 -46 50 -37 50 4 0 15 -10 25 -22z m29 -91 c0 -53 -20 -97 -43 -97 -8 0 -9 3 -1 8 19 13 36 71 32 107 -2 19 0 35 4 35 4 0 8 -24 8 -53z"/> <path d="M2910 2095 l0 -75 35 0 c48 0 85 36 85 84 0 43 -29 66 -82 66 l-38 0 0 -75z m63 48 c-7 -2 -21 -2 -30 0 -10 3 -4 5 12 5 17 0 24 -2 18 -5z m35 -34 c-5 -3 -8 -11 -6 -16 3 -13 0 -13 -44 -12 l-33 2 35 7 c32 7 17 15 -18 11 -27 -4 -5 24 23 29 30 5 61 -10 43 -21z m-18 -49 c11 -7 6 -9 -18 -7 -17 2 -35 7 -39 10 -10 11 40 8 57 -3z"/> <path d="M3145 2262 c3 -9 40 -89 83 -179 63 -133 81 -163 98 -163 17 0 35 31 101 176 l82 175 -36 -3 c-36 -3 -37 -3 -93 -130 l-56 -126 -55 126 c-54 126 -55 127 -92 133 -31 5 -37 3 -32 -9z m77 -77 c17 -37 28 -69 24 -72 -3 -3 -15 16 -26 43 -11 27 -24 57 -30 66 -11 20 -13 28 -4 28 3 0 19 -29 36 -65z m219 0 c-11 -22 -20 -35 -21 -28 0 17 34 87 37 76 2 -5 -6 -27 -16 -48z m-28 -60 c-3 -9 -8 -14 -10 -11 -3 3 -2 9 2 15 9 16 15 13 8 -4z m-143 -46 c0 -6 -4 -7 -10 -4 -5 3 -10 11 -10 16 0 6 5 7 10 4 6 -3 10 -11 10 -16z m20 -54 c0 -5 -5 -3 -10 5 -5 8 -10 20 -10 25 0 6 5 3 10 -5 5 -8 10 -19 10 -25z m90 21 c0 -3 -4 -8 -10 -11 -5 -3 -10 -1 -10 4 0 6 5 11 10 11 6 0 10 -2 10 -4z m-40 -38 c11 7 20 10 20 8 0 -13 -24 -56 -31 -56 -13 0 -39 42 -32 53 3 5 9 3 14 -4 7 -11 12 -12 29 -1z"/> <path d="M3540 2095 l0 -175 120 0 120 0 0 25 c0 25 -1 25 -90 25 l-90 0 0 60 0 60 69 0 c65 0 69 1 73 25 5 25 5 25 -68 25 l-74 0 0 40 0 40 90 0 c89 0 90 0 90 25 l0 25 -120 0 -120 0 0 -175z m40 130 c-7 -9 -15 -13 -17 -11 -7 7 7 26 19 26 6 0 6 -6 -2 -15z m2 -127 c-6 -13 -13 -43 -15 -68 -2 -25 -4 -8 -3 37 0 73 2 81 15 68 12 -11 12 -19 3 -37z m2 -133 c3 -8 1 -15 -3 -15 -5 0 -11 7 -15 15 -3 8 -1 15 3 15 5 0 11 -7 15 -15z"/> <path d="M3845 2095 l0 -175 27 0 27 0 3 129 3 130 120 -129 c90 -96 126 -128 145 -129 l26 -1 -1 175 0 175 -30 0 -30 0 3 -130 3 -131 -118 130 c-100 109 -123 129 -148 130 l-30 1 0 -175z m90 101 c25 -24 45 -47 45 -52 0 -4 -16 7 -35 26 -27 26 -38 31 -47 22 -19 -19 -27 -14 -23 16 2 15 4 28 4 30 3 8 17 -3 56 -42z m-58 -123 c-3 -10 -5 -4 -5 12 0 17 2 24 5 18 2 -7 2 -21 0 -30z m164 10 c13 -16 12 -17 -3 -4 -17 13 -22 21 -14 21 2 0 10 -8 17 -17z m126 -20 c-3 -10 -5 -4 -5 12 0 17 2 24 5 18 2 -7 2 -21 0 -30z m-93 -19 c3 -8 2 -12 -4 -9 -6 3 -10 10 -10 16 0 14 7 11 14 -7z m-197 -46 c-2 -13 -4 -5 -4 17 -1 22 1 32 4 23 2 -10 2 -28 0 -40z m293 2 c0 -49 -15 -52 -55 -10 -27 28 -24 44 4 18 10 -11 16 -9 29 9 10 12 18 22 20 23 1 0 2 -18 2 -40z"/> <path d="M4240 2239 l0 -30 56 3 56 3 -1 -147 -2 -148 31 0 30 0 0 149 0 149 65 -6 65 -5 0 32 0 31 -150 0 -150 0 0 -31z m162 1 c6 0 5 -6 -2 -15 -10 -12 -16 -13 -26 -4 -19 16 -18 33 2 25 9 -3 20 -6 26 -6z"/> <path d="M768 2220 c-2 -6 -20 -11 -41 -12 -20 -1 -37 -5 -37 -10 0 -10 71 1 84 13 5 5 7 11 4 14 -3 4 -8 1 -10 -5z"/> <path d="M496 2193 c-4 -4 -22 -6 -41 -4 -33 2 -62 -17 -104 -72 -12 -16 -12 -17 5 -10 26 10 44 29 36 38 -4 4 4 5 18 1 14 -3 19 -3 13 0 -27 12 -11 22 35 22 41 1 102 15 102 25 0 6 -57 7 -64 0z"/> <path d="M610 2170 c-30 -5 -25 -7 35 -14 42 -4 80 -3 95 3 20 8 15 9 -30 6 -30 -1 -57 0 -60 4 -3 3 -21 4 -40 1z"/> <path d="M525 2160 l-30 -8 32 -1 c17 0 35 4 38 9 7 11 3 11 -40 0z"/> <path d="M3788 2121 c4 -42 1 -50 -19 -65 -14 -9 -43 -16 -71 -16 -32 0 -48 -4 -48 -12 0 -9 22 -13 75 -13 l75 0 0 78 c0 42 -4 77 -9 77 -4 0 -6 -22 -3 -49z"/> <path d="M480 2130 c-13 -8 -12 -10 3 -10 9 0 17 5 17 10 0 12 -1 12 -20 0z"/> <path d="M606 2116 c4 -10 -12 -14 -68 -15 -40 -1 -77 -6 -82 -11 -14 -14 -29 -12 -20 2 5 8 -2 9 -26 5 -18 -4 -41 -7 -52 -7 -10 0 -17 -4 -13 -9 3 -5 37 -9 76 -9 39 0 65 4 59 8 -7 4 34 9 91 12 68 2 104 8 107 16 2 7 14 10 30 6 21 -4 24 -3 12 5 -19 14 -73 14 -65 1 8 -12 3 -13 -29 0 -19 7 -24 6 -20 -4z"/> <path d="M510 2055 c7 -8 20 -15 29 -15 13 1 13 3 -3 15 -26 19 -42 19 -26 0z"/> <path d="M560 2056 c7 -7 13 -7 20 0 6 6 3 10 -10 10 -13 0 -16 -4 -10 -10z"/> <path d="M5703 2053 c4 -3 25 -9 47 -13 23 -4 38 -4 33 0 -9 9 -88 22 -80 13z"/> <path d="M376 2041 c-6 -10 26 -21 61 -21 14 0 21 5 17 13 -5 15 -70 22 -78 8z"/> <path d="M730 2040 c-13 -8 -12 -10 3 -10 9 0 17 5 17 10 0 12 -1 12 -20 0z"/> <path d="M510 2029 c-37 -5 -32 -6 33 -7 48 -1 76 2 72 8 -6 9 -28 9 -105 -1z"/> <path d="M668 2033 c7 -3 16 -2 19 1 4 3 -2 6 -13 5 -11 0 -14 -3 -6 -6z"/> <path d="M768 2033 c7 -3 16 -2 19 1 4 3 -2 6 -13 5 -11 0 -14 -3 -6 -6z"/> <path d="M365 2000 c-3 -5 -20 -14 -38 -20 -29 -9 -27 -9 17 -5 27 3 66 5 87 5 25 0 39 5 39 13 0 15 -96 22 -105 7z m32 -6 c-3 -3 -12 -4 -19 -1 -8 3 -5 6 6 6 11 1 17 -2 13 -5z"/> <path d="M488 2003 c7 -3 16 -2 19 1 4 3 -2 6 -13 5 -11 0 -14 -3 -6 -6z"/> <path d="M530 1995 c-7 -8 -9 -15 -6 -15 4 0 14 7 22 15 9 8 11 15 6 15 -5 0 -15 -7 -22 -15z"/> <path d="M668 2003 c7 -3 16 -2 19 1 4 3 -2 6 -13 5 -11 0 -14 -3 -6 -6z"/> <path d="M623 1983 c9 -2 23 -2 30 0 6 3 -1 5 -18 5 -16 0 -22 -2 -12 -5z"/> <path d="M466 1961 c-4 -5 3 -7 14 -4 23 6 26 13 6 13 -8 0 -17 -4 -20 -9z"/> <path d="M330 1950 c-8 -5 -12 -11 -10 -14 9 -8 90 6 84 15 -7 12 -55 11 -74 -1z"/> <path d="M497 1933 c18 -2 50 -2 70 0 21 2 7 4 -32 4 -38 0 -55 -2 -38 -4z"/> <path d="M5285 1919 c-44 -7 -63 -5 200 -15 66 -2 132 -6 148 -8 15 -2 27 -1 27 4 0 15 -299 30 -375 19z"/> <path d="M302 1904 c-15 -16 108 -18 139 -2 22 12 17 13 -52 13 -43 0 -81 -5 -87 -11z"/> <path d="M568 1913 c7 -3 16 -2 19 1 4 3 -2 6 -13 5 -11 0 -14 -3 -6 -6z"/> <path d="M571 1893 c-19 -8 -43 -12 -53 -10 -10 3 -18 1 -18 -4 0 -5 -7 -9 -15 -9 -8 0 -15 7 -15 15 0 18 -1 18 -35 1 -25 -13 -26 -15 -8 -24 12 -7 41 -8 79 -3 32 5 66 6 74 4 12 -4 13 -3 1 5 -11 8 -10 12 6 21 11 5 24 7 28 3 5 -4 5 -1 1 6 -4 6 -8 12 -9 11 -1 0 -17 -7 -36 -16z"/> <path d="M720 1902 c0 -4 16 -6 35 -4 19 2 35 6 35 8 0 2 -16 4 -35 4 -19 0 -35 -4 -35 -8z"/> <path d="M3984 1878 c-2 -3 18 -5 45 -5 27 1 44 5 37 9 -15 9 -76 6 -82 -4z"/> <path d="M301 1876 c12 -10 79 -16 79 -6 0 5 -19 10 -42 10 -23 0 -39 -2 -37 -4z"/> <path d="M645 1870 c27 -12 43 -12 25 0 -8 5 -22 9 -30 9 -10 0 -8 -3 5 -9z"/> <path d="M700 1870 c-12 -8 -10 -10 10 -8 14 0 30 0 35 -2 6 -1 17 -2 25 0 11 1 9 4 -5 10 -27 12 -47 12 -65 0z"/> <path d="M803 1863 c9 -2 25 -2 35 0 9 3 1 5 -18 5 -19 0 -27 -2 -17 -5z"/> <path d="M535 1842 c-44 -2 -84 -7 -89 -12 -5 -5 39 -7 103 -6 109 2 150 10 94 17 -15 2 -64 3 -108 1z"/> <path d="M4038 1843 c6 -2 18 -2 25 0 6 3 1 5 -13 5 -14 0 -19 -2 -12 -5z"/> <path d="M4180 1830 c-9 -6 -10 -10 -3 -10 6 0 15 5 18 10 8 12 4 12 -15 0z"/> <path d="M4206 1825 c-3 -8 -3 -15 0 -15 3 0 12 7 20 15 13 13 13 15 1 15 -8 0 -17 -7 -21 -15z"/> <path d="M4250 1833 c0 -4 28 -8 63 -9 34 0 148 -3 252 -6 105 -3 181 -2 170 2 -29 10 -485 23 -485 13z"/> <path d="M680 1820 c-13 -8 -12 -10 3 -10 9 0 17 5 17 10 0 12 -1 12 -20 0z"/> <path d="M750 1820 c0 -12 8 -12 35 0 18 8 17 9 -7 9 -16 1 -28 -3 -28 -9z"/> <path d="M818 1823 c6 -2 18 -2 25 0 6 3 1 5 -13 5 -14 0 -19 -2 -12 -5z"/> <path d="M2258 1823 c7 -3 16 -2 19 1 4 3 -2 6 -13 5 -11 0 -14 -3 -6 -6z"/> <path d="M4023 1823 c15 -2 37 -2 50 0 12 2 0 4 -28 4 -27 0 -38 -2 -22 -4z"/> <path d="M4118 1823 c6 -2 18 -2 25 0 6 3 1 5 -13 5 -14 0 -19 -2 -12 -5z"/> <path d="M718 1813 c7 -3 16 -2 19 1 4 3 -2 6 -13 5 -11 0 -14 -3 -6 -6z"/> <path d="M3888 1813 c7 -3 16 -2 19 1 4 3 -2 6 -13 5 -11 0 -14 -3 -6 -6z"/> <path d="M2257 1804 c-13 -13 5 -24 29 -18 16 4 24 2 24 -7 0 -12 2 -12 9 0 6 10 21 12 47 9 22 -3 48 -2 59 3 13 5 -5 8 -50 7 -39 0 -79 2 -91 6 -11 3 -23 3 -27 0z"/> <path d="M2450 1799 c0 -3 37 -7 83 -8 202 -4 319 -9 324 -15 4 -3 -12 -6 -35 -6 -24 0 -42 -5 -42 -11 0 -8 15 -9 46 -4 28 4 50 2 58 -5 10 -8 15 -7 20 5 3 9 2 14 -2 11 -4 -2 -14 -1 -22 5 -11 6 -8 9 13 9 15 0 27 -5 27 -11 0 -12 190 -6 223 6 25 10 89 -4 84 -18 -2 -7 -14 -13 -28 -14 l-24 -2 25 8 25 9 -25 3 c-37 3 -72 -1 -90 -12 -10 -6 -3 -8 25 -4 31 3 35 3 15 -4 -34 -12 -133 -13 -105 -1 16 7 17 9 3 9 -9 1 -19 -3 -22 -8 -6 -9 -226 -21 -479 -25 -87 -2 -161 -6 -164 -10 -4 -3 -14 -6 -24 -6 -10 0 -20 -4 -23 -8 -3 -5 21 -5 52 0 70 9 306 13 320 4 6 -3 13 -2 17 4 3 5 11 10 16 10 6 0 7 -4 4 -10 -4 -6 9 -10 32 -9 l38 1 -30 9 c-25 7 -23 7 13 4 25 -3 42 -1 42 5 0 5 12 10 28 9 24 0 25 -1 7 -10 -14 -6 -2 -7 35 -3 57 7 62 8 145 5 28 -1 61 1 75 5 23 7 55 10 160 14 l35 2 -33 8 c-19 4 -39 13 -45 20 -9 8 -8 10 3 6 8 -3 29 -2 45 3 l30 10 -35 1 c-19 0 -82 2 -140 4 -58 2 -190 7 -295 11 -295 10 -405 11 -405 4z m513 -26 c-7 -2 -19 -2 -25 0 -7 3 -2 5 12 5 14 0 19 -2 13 -5z m64 1 c-3 -3 -12 -4 -19 -1 -8 3 -5 6 6 6 11 1 17 -2 13 -5z"/> <path d="M4793 1798 c5 -14 1 -18 -16 -17 -108 4 -765 -15 -777 -22 -9 -5 159 -7 443 -5 286 3 463 9 471 15 6 5 59 10 116 11 186 2 310 7 315 12 11 11 -195 19 -215 8 -11 -6 -24 -8 -29 -5 -10 5 -204 8 -256 2 -16 -1 -36 2 -44 8 -12 8 -13 6 -8 -7z"/> <path d="M3238 1793 c6 -2 18 -2 25 0 6 3 1 5 -13 5 -14 0 -19 -2 -12 -5z"/> <path d="M3293 1793 c9 -2 23 -2 30 0 6 3 -1 5 -18 5 -16 0 -22 -2 -12 -5z"/> <path d="M3345 1790 c-3 -5 1 -10 9 -10 9 0 16 5 16 10 0 6 -4 10 -9 10 -6 0 -13 -4 -16 -10z"/> <path d="M3495 1790 c8 -12 -22 -19 -113 -24 -41 -2 -77 -8 -80 -12 -4 -4 6 -4 21 -2 21 4 27 2 23 -8 -4 -10 3 -14 22 -13 24 0 25 1 7 9 -17 6 -15 8 15 13 55 10 231 14 218 6 -15 -10 180 -16 252 -8 52 5 50 6 -30 9 -47 2 -112 3 -145 2 -43 -1 -53 1 -35 7 19 6 9 9 -45 13 -38 2 -71 1 -73 -4 -2 -4 -8 -8 -13 -8 -6 0 -8 4 -5 9 3 5 -1 12 -10 15 -8 3 -12 2 -9 -4z"/> <path d="M3720 1790 c24 -4 54 -5 65 -3 15 4 17 2 6 -5 -10 -7 9 -10 62 -9 83 2 89 11 15 21 -35 4 -48 2 -48 -7 0 -9 -2 -9 -8 -1 -4 7 -34 12 -72 12 -61 -1 -63 -1 -20 -8z"/> <path d="M4068 1793 c7 -3 16 -2 19 1 4 3 -2 6 -13 5 -11 0 -14 -3 -6 -6z"/> <path d="M491 1776 c-12 -14 -11 -16 10 -12 13 3 35 5 49 6 l25 1 -24 10 c-17 7 -27 6 -32 -2 -5 -8 -8 -8 -11 1 -3 9 -8 7 -17 -4z"/> <path d="M3393 1783 c9 -2 23 -2 30 0 6 3 -1 5 -18 5 -16 0 -22 -2 -12 -5z"/> <path d="M3970 1778 c0 -4 4 -8 9 -8 6 0 12 4 15 8 3 5 -1 9 -9 9 -8 0 -15 -4 -15 -9z"/> <path d="M2348 1773 c6 -2 18 -2 25 0 6 3 1 5 -13 5 -14 0 -19 -2 -12 -5z"/> <path d="M2565 1773 c-11 -3 -26 -10 -33 -16 -18 -14 3 -27 43 -26 30 2 30 2 -5 9 -31 7 -32 7 -7 9 17 1 27 7 27 16 0 8 -1 14 -2 14 -2 -1 -12 -4 -23 -6z"/> <path d="M3688 1773 c7 -3 16 -2 19 1 4 3 -2 6 -13 5 -11 0 -14 -3 -6 -6z"/> <path d="M570 1759 c-11 -6 -12 -9 -2 -9 7 0 11 -4 8 -8 -2 -4 6 -9 20 -10 13 -1 24 3 24 8 0 6 5 10 11 10 5 0 7 -5 3 -11 -5 -8 19 -10 82 -6 98 5 119 9 131 21 4 5 -8 6 -27 1 -54 -11 -164 -12 -178 -2 -8 7 -17 6 -24 -1 -14 -14 -32 -16 -23 -3 8 14 -9 21 -25 10z"/> <path d="M728 1763 c7 -3 16 -2 19 1 4 3 -2 6 -13 5 -11 0 -14 -3 -6 -6z"/> <path d="M2443 1763 c15 -2 37 -2 50 0 12 2 0 4 -28 4 -27 0 -38 -2 -22 -4z"/> <path d="M2600 1762 c0 -4 38 -7 84 -7 46 0 82 3 80 6 -6 10 -164 11 -164 1z"/> <path d="M2235 1749 c-45 -5 -43 -6 22 -6 40 0 78 4 85 8 14 9 -25 8 -107 -2z"/> <path d="M2370 1750 c13 -9 149 -15 139 -6 -2 2 -38 6 -79 10 -51 4 -70 3 -60 -4z"/> <path d="M3943 1753 c9 -2 23 -2 30 0 6 3 -1 5 -18 5 -16 0 -22 -2 -12 -5z"/> <path d="M4973 1754 c7 -8 87 -7 95 0 3 3 -19 6 -48 6 -29 0 -51 -3 -47 -6z"/> <path d="M535 1740 c-3 -5 -1 -10 4 -10 6 0 11 5 11 10 0 6 -2 10 -4 10 -3 0 -8 -4 -11 -10z"/> <path d="M2963 1743 c9 -2 23 -2 30 0 6 3 -1 5 -18 5 -16 0 -22 -2 -12 -5z"/> <path d="M3410 1739 c0 -4 8 -10 18 -12 16 -4 -21 -8 -117 -11 -22 0 -43 -4 -46 -8 -4 -4 41 -6 99 -5 59 1 112 -1 119 -5 6 -4 15 -4 20 -1 10 6 152 5 332 -4 66 -3 127 -6 135 -6 8 0 44 3 80 8 36 4 72 7 80 6 100 -8 116 -8 123 3 5 8 9 7 16 -3 5 -7 14 -10 20 -6 7 4 49 9 94 11 45 2 111 7 147 10 36 4 131 7 212 8 81 1 151 5 155 10 4 5 -172 4 -392 0 -558 -12 -1060 -12 -1058 1 1 6 -7 11 -18 11 -10 0 -19 -3 -19 -7z"/> <path d="M3460 1746 c0 -2 7 -7 16 -10 8 -3 12 -2 9 4 -6 10 -25 14 -25 6z"/> <path d="M3518 1743 c6 -2 18 -2 25 0 6 3 1 5 -13 5 -14 0 -19 -2 -12 -5z"/> <path d="M561 1706 c15 -15 142 -26 155 -13 4 4 -9 7 -30 7 -20 0 -35 3 -33 8 3 4 -20 8 -51 9 -48 2 -54 1 -41 -11z"/> <path d="M2298 1713 c12 -2 32 -2 45 0 12 2 2 4 -23 4 -25 0 -35 -2 -22 -4z"/> <path d="M3167 1713 c-3 -5 6 -9 20 -10 19 -1 22 1 12 8 -17 11 -26 11 -32 2z"/> <path d="M763 1700 c-13 -5 -23 -12 -23 -15 0 -4 5 -3 12 1 6 4 39 10 72 14 l61 7 -50 1 c-27 0 -60 -3 -72 -8z"/> <path d="M2966 1701 c-4 -5 3 -7 14 -4 23 6 26 13 6 13 -8 0 -17 -4 -20 -9z"/> <path d="M2201 1696 c2 -2 29 -6 59 -9 34 -3 47 -2 35 3 -19 8 -103 14 -94 6z"/> <path d="M855 1681 c5 -10 -9 -12 -63 -9 -39 1 -68 0 -65 -4 2 -5 -10 -8 -26 -8 -17 0 -31 4 -31 9 0 6 -19 8 -42 5 -55 -7 -65 -17 -13 -13 22 2 45 0 50 -3 22 -13 73 -19 80 -9 3 6 31 11 60 11 44 0 53 -3 49 -15 -4 -11 0 -15 16 -15 20 0 20 1 6 16 -9 8 -14 19 -11 24 3 5 0 12 -6 16 -8 5 -9 3 -4 -5z"/> <path d="M2595 1679 c-28 -6 -28 -7 10 -8 22 0 46 3 54 8 16 10 -19 11 -64 0z"/> <path d="M3228 1683 c7 -3 16 -2 19 1 4 3 -2 6 -13 5 -11 0 -14 -3 -6 -6z"/> <path d="M2718 1673 c6 -2 18 -2 25 0 6 3 1 5 -13 5 -14 0 -19 -2 -12 -5z"/> <path d="M2773 1673 c9 -2 23 -2 30 0 6 3 -1 5 -18 5 -16 0 -22 -2 -12 -5z"/> <path d="M2978 1673 c7 -3 16 -2 19 1 4 3 -2 6 -13 5 -11 0 -14 -3 -6 -6z"/> <path d="M3288 1673 c6 -2 18 -2 25 0 6 3 1 5 -13 5 -14 0 -19 -2 -12 -5z"/> <path d="M890 1656 c6 -6 18 -5 32 2 22 10 21 11 -9 9 -21 -1 -29 -5 -23 -11z"/> <path d="M2273 1663 c9 -2 23 -2 30 0 6 3 -1 5 -18 5 -16 0 -22 -2 -12 -5z"/> <path d="M3060 1663 c0 -5 -90 -8 -199 -8 -109 0 -198 -2 -196 -5 2 -3 -11 -6 -28 -7 -17 -1 -34 -6 -38 -10 -5 -5 40 -6 99 -3 59 3 195 5 303 4 191 0 196 1 174 18 -23 18 -115 26 -115 11z"/> <path d="M3190 1663 c8 -3 18 -10 21 -15 3 -5 45 -9 92 -9 63 0 90 -4 101 -14 17 -18 30 -20 20 -3 -5 8 -1 9 12 4 12 -5 16 -4 9 3 -5 5 -21 11 -35 14 -14 2 7 4 45 4 55 0 63 -1 35 -7 -52 -11 273 -9 350 2 36 5 77 9 92 10 15 1 25 5 22 10 -5 7 -491 4 -604 -4 -8 0 -51 2 -95 5 -44 3 -73 3 -65 0z"/> <path d="M3980 1660 c-8 -5 -10 -10 -5 -10 6 0 17 5 25 10 8 5 11 10 5 10 -5 0 -17 -5 -25 -10z"/> <path d="M4070 1659 c0 -5 9 -9 20 -9 11 0 20 2 20 4 0 2 -9 6 -20 9 -11 3 -20 1 -20 -4z"/> <path d="M788 1643 c6 -2 10 -9 6 -14 -9 -15 2 -10 16 6 10 13 9 15 -11 14 -13 0 -18 -3 -11 -6z"/> <path d="M2495 1642 c-3 -3 -62 -5 -132 -4 -69 1 -124 0 -121 -3 7 -7 233 -13 264 -7 13 2 24 8 24 11 0 9 -27 10 -35 3z"/> <path d="M949 1626 c-2 -3 -32 -6 -66 -8 -34 -1 -59 -6 -56 -11 2 -4 13 -5 24 -2 11 4 19 2 19 -5 0 -6 5 -8 12 -4 6 4 24 8 40 9 30 3 45 11 36 20 -2 3 -7 3 -9 1z"/> <path d="M3938 1623 c12 -2 32 -2 45 0 12 2 2 4 -23 4 -25 0 -35 -2 -22 -4z"/> <path d="M4047 1619 c8 -8 27 -8 64 -1 l54 10 -64 1 c-47 1 -62 -2 -54 -10z"/> <path d="M3606 1608 c4 -6 -3 -8 -17 -4 -17 5 -20 4 -9 -2 20 -13 62 -10 67 4 2 7 -7 12 -21 12 -14 0 -23 -5 -20 -10z"/> <path d="M3690 1609 c0 -8 151 -2 159 7 3 3 -32 4 -77 3 -45 -1 -82 -5 -82 -10z"/> <path d="M978 1603 c6 -2 18 -2 25 0 6 3 1 5 -13 5 -14 0 -19 -2 -12 -5z"/> <path d="M3480 1600 c-21 -7 -21 -8 -5 -9 11 0 27 4 35 9 18 11 5 11 -30 0z"/> <path d="M820 1580 c0 -16 29 -18 71 -5 l44 13 -57 0 c-32 0 -58 -3 -58 -8z"/> <path d="M3305 1570 l-40 -7 48 -2 c30 0 46 3 42 9 -3 6 -7 9 -8 9 -1 -1 -20 -5 -42 -9z"/> <path d="M2036 1555 c4 -8 10 -12 15 -9 14 8 10 24 -6 24 -9 0 -12 -6 -9 -15z"/> <path d="M3213 1563 c9 -2 25 -2 35 0 9 3 1 5 -18 5 -19 0 -27 -2 -17 -5z"/> <path d="M3463 1563 c9 -2 23 -2 30 0 6 3 -1 5 -18 5 -16 0 -22 -2 -12 -5z"/> <path d="M3563 1563 c9 -2 23 -2 30 0 6 3 -1 5 -18 5 -16 0 -22 -2 -12 -5z"/> <path d="M855 1552 c-29 -3 -35 -6 -21 -11 23 -9 76 -2 76 10 0 5 -3 8 -7 7 -5 -1 -26 -3 -48 -6z"/> <path d="M991 1538 c-21 -20 -23 -21 -17 -4 5 16 4 17 -9 6 -8 -7 -34 -12 -57 -13 -24 0 -34 -2 -23 -5 11 -2 26 -9 33 -14 20 -17 172 4 172 23 0 10 -62 5 -80 -6 -14 -9 -13 8 2 23 22 22 3 12 -21 -10z"/> <path d="M2190 1550 c-8 -5 -10 -10 -5 -10 6 0 17 5 25 10 8 5 11 10 5 10 -5 0 -17 -5 -25 -10z"/> <path d="M2947 1549 c12 -12 97 -12 143 -1 27 6 14 8 -58 9 -55 0 -90 -3 -85 -8z"/> <path d="M2105 1540 c11 -5 27 -9 35 -9 9 0 8 4 -5 9 -11 5 -27 9 -35 9 -9 0 -8 -4 5 -9z"/> <path d="M788 1533 c7 -3 16 -2 19 1 4 3 -2 6 -13 5 -11 0 -14 -3 -6 -6z"/> <path d="M2493 1503 c9 -2 25 -2 35 0 9 3 1 5 -18 5 -19 0 -27 -2 -17 -5z"/> <path d="M798 1493 c6 -2 18 -2 25 0 6 3 1 5 -13 5 -14 0 -19 -2 -12 -5z"/> <path d="M1145 1484 c-25 -13 -63 -13 -165 1 -53 6 -43 -8 16 -22 53 -13 149 -10 168 6 8 7 20 10 26 6 6 -3 22 -8 35 -11 41 -7 28 13 -15 24 -29 7 -45 6 -65 -4z"/> <path d="M2486 1480 c6 -6 26 -6 54 -1 l45 9 -54 1 c-36 1 -52 -2 -45 -9z"/> <path d="M2617 1483 c18 -2 50 -2 70 0 21 2 7 4 -32 4 -38 0 -55 -2 -38 -4z"/> <path d="M2300 1472 c0 -5 26 -7 58 -5 83 6 87 11 10 12 -38 1 -68 -3 -68 -7z"/> <path d="M2000 1461 c-14 -5 36 -6 110 -4 74 2 136 6 139 8 7 8 -222 4 -249 -4z"/> <path d="M1059 1430 c30 -5 64 -4 75 0 14 6 -4 9 -54 8 l-75 0 54 -8z"/> </g> </svg>